<svg width="36" height="36" viewBox="0 0 36 36" fill="none" xmlns="http://www.w3.org/2000/svg">
<path d="M31.5 1.6875H4.5V34.3125H31.5V1.6875Z" stroke="#3C3939" stroke-width="2" stroke-miterlimit="10" stroke-linecap="square"/>
<path d="M14.0625 17.4375C15.6158 17.4375 16.875 16.1783 16.875 14.625C16.875 13.0717 15.6158 11.8125 14.0625 11.8125C12.5092 11.8125 11.25 13.0717 11.25 14.625C11.25 16.1783 12.5092 17.4375 14.0625 17.4375Z" stroke="#3C3939" stroke-width="2" stroke-miterlimit="10" stroke-linecap="square"/>
<path d="M14.0625 20.25C12.4215 20.25 10.8477 20.9019 9.68728 22.0623C8.5269 23.2227 7.875 24.7965 7.875 26.4375H20.25C20.25 24.7965 19.5981 23.2227 18.4377 22.0623C17.2773 20.9019 15.7035 20.25 14.0625 20.25Z" stroke="#3C3939" stroke-width="2" stroke-miterlimit="10" stroke-linecap="square"/>
<path d="M22.5 14.0625C23.7426 14.0625 24.75 13.0551 24.75 11.8125C24.75 10.5699 23.7426 9.5625 22.5 9.5625C21.2574 9.5625 20.25 10.5699 20.25 11.8125C20.25 13.0551 21.2574 14.0625 22.5 14.0625Z" stroke="#3C3939" stroke-width="2" stroke-miterlimit="10" stroke-linecap="square"/>
<path d="M22.5 22.5H28.125C28.125 21.4554 27.8341 20.4314 27.2849 19.5428C26.7357 18.6541 25.9499 17.936 25.0156 17.4688C24.0812 17.0017 23.0353 16.8039 21.9948 16.8977C20.9544 16.9915 19.9607 17.3732 19.125 18" stroke="#3C3939" stroke-width="2" stroke-miterlimit="10" stroke-linecap="square"/>
</svg>
