<svg width="36" height="36" viewBox="0 0 36 36" fill="none" xmlns="http://www.w3.org/2000/svg">
<path d="M21.0606 18C22.6995 19.4497 24.812 20.2499 27 20.2499C29.188 20.2499 31.3005 19.4497 32.9394 18C31.6414 16.8544 30.0402 16.108 28.3283 15.8504C26.6163 15.5928 24.8663 15.8349 23.2887 16.5477C21.711 17.2606 20.3727 18.4138 19.4345 19.8688C18.4963 21.3238 17.9982 23.0188 18 24.75V25.875" stroke="#3C3939" stroke-width="2" stroke-miterlimit="10"/>
<path d="M18 14.625C21.7279 14.625 24.75 11.6029 24.75 7.875C24.75 4.14708 21.7279 1.125 18 1.125C14.2721 1.125 11.25 4.14708 11.25 7.875C11.25 11.6029 14.2721 14.625 18 14.625Z" stroke="#3C3939" stroke-width="2" stroke-miterlimit="10" stroke-linecap="square"/>
<path d="M11.25 25.875H24.75L23.625 34.875H12.375L11.25 25.875Z" stroke="#3C3939" stroke-width="2" stroke-miterlimit="10" stroke-linecap="square"/>
<path d="M18 25.875V24.75C18.0018 23.0188 17.5037 21.3238 16.5655 19.8688C15.6273 18.4138 14.289 17.2606 12.7113 16.5477C11.1337 15.8349 9.38371 15.5928 7.67173 15.8504C5.95976 16.108 4.35858 16.8544 3.06055 18C4.69944 19.4497 6.81194 20.2499 8.99998 20.2499C11.188 20.2499 13.3005 19.4497 14.9394 18" stroke="#3C3939" stroke-width="2" stroke-miterlimit="10"/>
<path d="M17.9995 5.06257L15.1871 7.87505L17.9995 10.6875L20.812 7.87505L17.9995 5.06257Z" stroke="#3C3939" stroke-width="2" stroke-miterlimit="10" stroke-linecap="square"/>
</svg>
