<svg width="146" height="25" viewBox="0 0 146 25" fill="none" xmlns="http://www.w3.org/2000/svg">
<path d="M4.6 24.832C3.34133 24.832 2.41333 24.4373 1.816 23.648C1.21867 22.8373 0.92 21.6427 0.92 20.064C0.92 18.464 1.592 13.952 2.936 6.528L1.24 3.104C3.65067 1.54667 5.848 0.768 7.832 0.768C9.09067 0.768 9.86933 1.36533 10.168 2.56C12.5787 2.496 15.5867 1.952 19.192 0.927999C19.3627 1.632 19.448 2.32533 19.448 3.008C19.448 4.736 18.872 6.03733 17.72 6.912C16.5893 7.78667 15.128 8.224 13.336 8.224C12.12 8.224 10.9253 7.968 9.752 7.456C9.58133 8.416 9.28267 9.984 8.856 12.16C9.64533 12.3093 10.3173 12.384 10.872 12.384C11.7467 12.2133 12.7067 11.968 13.752 11.648C13.8587 12.0107 13.912 12.608 13.912 13.44C13.912 14.2507 13.5813 14.9013 12.92 15.392C12.2587 15.8827 11.512 16.128 10.68 16.128C9.86933 16.128 9.03733 16.032 8.184 15.84C7.94933 17.184 7.832 18.4533 7.832 19.648H13.016C14.6373 19.4133 16.2693 18.9973 17.912 18.4C18.04 18.784 18.104 19.3067 18.104 19.968C18.104 21.2267 17.7307 22.3467 16.984 23.328C16.2587 24.3093 15.2453 24.8 13.944 24.8C13.2613 24.8 12.2587 24.6613 10.936 24.384C9.63467 24.128 8.664 23.968 8.024 23.904C7 24.5227 5.85867 24.832 4.6 24.832ZM22.5885 18.144C21.2445 18.144 20.5725 17.3653 20.5725 15.808C20.5725 14.6773 20.8712 13.4613 21.4685 12.16C21.9165 12.3093 22.5672 12.384 23.4205 12.384C24.2952 12.384 25.6818 12.0427 27.5805 11.36C29.5005 10.6773 30.9512 10.336 31.9325 10.336C33.2765 10.336 33.9485 11.1147 33.9485 12.672C33.9485 13.8027 33.6498 15.0187 33.0525 16.32C32.6045 16.1707 31.9432 16.096 31.0685 16.096C30.2152 16.096 28.8285 16.4373 26.9085 17.12C25.0098 17.8027 23.5698 18.144 22.5885 18.144ZM48.9668 0.799999C51.7828 0.799999 53.8948 1.13067 55.3028 1.792C56.7108 2.432 57.4148 3.46667 57.4148 4.896C57.4148 6.304 56.9774 7.38133 56.1028 8.128C55.2494 8.85333 54.2681 9.216 53.1588 9.216C52.0494 9.216 51.0468 8.93867 50.1508 8.384C49.2761 7.808 48.6681 7.05067 48.3268 6.112C47.5374 6.112 46.7801 6.37867 46.0548 6.912C45.3508 7.424 44.9028 8.096 44.7108 8.928C48.9348 9.952 51.9641 11.1467 53.7987 12.512C55.6334 13.8773 56.5508 15.6267 56.5508 17.76C56.5508 19.8933 55.5801 21.6 53.6388 22.88C51.7188 24.16 49.1161 24.8 45.8308 24.8C42.5668 24.8 40.2521 24.352 38.8868 23.456C37.5214 22.56 36.8388 21.376 36.8388 19.904C36.8388 18.432 37.2974 17.0773 38.2148 15.84C38.6628 16.8 39.5161 17.664 40.7748 18.432C42.0548 19.2 43.3134 19.584 44.5508 19.584C46.8334 19.584 48.2841 18.8587 48.9028 17.408C45.3614 16.9387 42.6628 15.9573 40.8068 14.464C38.9508 12.9493 38.0228 11.1253 38.0228 8.992C38.0228 7.56267 38.4068 6.29333 39.1748 5.184C39.9428 4.05333 40.9241 3.18933 42.1188 2.592C44.4654 1.39733 46.7481 0.799999 48.9668 0.799999ZM58.166 6.336C58.166 4.608 58.614 3.30667 59.51 2.432C60.406 1.55733 61.4727 1.12 62.71 1.12C63.9687 1.12 65.6753 1.33333 67.83 1.76C69.9847 2.18667 71.606 2.41067 72.694 2.432C74.5073 2.09067 76.2353 1.67466 77.878 1.184C78.0487 1.73867 78.134 2.432 78.134 3.264C78.134 4.992 77.6327 6.29333 76.63 7.168C75.6487 8.04267 74.39 8.48 72.854 8.48C72.47 8.48 71.958 8.45867 71.318 8.416C70.1447 14.5813 69.558 18.0267 69.558 18.752C69.558 20.8213 69.878 22.368 70.518 23.392C69.238 24.352 67.9047 24.832 66.518 24.832C65.1313 24.832 64.1393 24.4373 63.542 23.648C62.9447 22.8373 62.646 21.6427 62.646 20.064C62.646 18.464 63.2647 14.2187 64.502 7.328C62.0913 7.648 60.0647 8.01067 58.422 8.416C58.2513 7.88267 58.166 7.18933 58.166 6.336ZM77.5813 14.208C77.5813 10.1547 78.7119 6.912 80.9733 4.48C83.2346 2.02667 86.3279 0.799999 90.2533 0.799999C91.5119 0.799999 92.4079 1.056 92.9412 1.568C93.4959 2.05867 93.7733 2.82667 93.7733 3.872C93.7733 4.02133 93.7519 4.30933 93.7093 4.736C94.4986 4.096 95.3733 3.776 96.3333 3.776C97.6346 3.776 98.7439 4.36267 99.6613 5.536C100.6 6.688 101.069 8.36267 101.069 10.56C101.069 12.7573 100.717 14.7733 100.013 16.608C99.3093 18.4427 98.3706 19.9467 97.1973 21.12C96.0453 22.2933 94.7226 23.2 93.2292 23.84C91.7573 24.48 90.2319 24.8 88.6533 24.8C85.2399 24.8 82.5413 23.8293 80.5573 21.888C78.5733 19.9253 77.5813 17.3653 77.5813 14.208ZM93.5493 15.712C92.1839 14.048 91.5013 12.256 91.5013 10.336C91.5013 8.416 91.9279 6.86933 92.7812 5.696C92.3973 5.632 92.0133 5.6 91.6293 5.6C90.1146 5.6 88.8026 6.05867 87.6933 6.976C85.6026 8.68267 84.5573 11.0507 84.5573 14.08C84.5573 15.808 84.9413 17.248 85.7093 18.4C86.4773 19.552 87.5439 20.128 88.9093 20.128C89.9546 20.128 90.9039 19.7227 91.7573 18.912C92.6319 18.08 93.2293 17.0133 93.5493 15.712ZM115.227 19.552L114.107 16.32C112.997 16.32 111.877 16.1493 110.747 15.808C110.512 17.1733 110.395 18.1547 110.395 18.752C110.395 20.8213 110.715 22.368 111.355 23.392C110.075 24.352 108.741 24.832 107.355 24.832C105.968 24.832 104.976 24.4373 104.379 23.648C103.781 22.8373 103.483 21.6427 103.483 20.064C103.483 18.464 104.155 13.952 105.499 6.528L103.803 3.104C106.192 1.568 108.389 0.799999 110.395 0.799999C111.931 0.799999 113.115 1.12 113.947 1.76C115.547 1.12 116.987 0.799999 118.267 0.799999C120.229 0.799999 121.787 1.46133 122.939 2.784C124.091 4.10667 124.667 5.696 124.667 7.552C124.667 8.93867 124.315 10.2827 123.611 11.584C122.907 12.864 121.872 13.9093 120.507 14.72C121.232 16.7893 122.043 18.5707 122.939 20.064C123.856 21.5573 124.763 22.5493 125.659 23.04C125.211 23.5093 124.517 23.9147 123.579 24.256C122.661 24.6187 121.829 24.8 121.083 24.8C119.632 24.8 118.469 24.4373 117.595 23.712C116.72 22.9653 115.931 21.5787 115.227 19.552ZM112.155 12.32C113.861 12.32 115.184 11.8827 116.123 11.008C117.083 10.1333 117.562 9.19467 117.562 8.192C117.562 7.18933 117.285 6.38933 116.731 5.792C116.176 5.19467 115.387 4.896 114.363 4.896C113.808 4.896 113.253 4.97067 112.699 5.12C112.016 9.19467 111.589 11.584 111.419 12.288C111.568 12.3093 111.813 12.32 112.155 12.32ZM130.631 24.832C129.373 24.832 128.445 24.4373 127.847 23.648C127.25 22.8373 126.951 21.6427 126.951 20.064C126.951 18.464 127.623 13.952 128.967 6.528L127.271 3.104C129.682 1.54667 131.879 0.768 133.863 0.768C135.122 0.768 135.901 1.36533 136.199 2.56C138.61 2.496 141.618 1.952 145.223 0.927999C145.394 1.632 145.479 2.32533 145.479 3.008C145.479 4.736 144.903 6.03733 143.751 6.912C142.621 7.78667 141.159 8.224 139.367 8.224C138.151 8.224 136.957 7.968 135.783 7.456C135.613 8.416 135.314 9.984 134.887 12.16C135.677 12.3093 136.349 12.384 136.903 12.384C137.778 12.2133 138.738 11.968 139.783 11.648C139.89 12.0107 139.943 12.608 139.943 13.44C139.943 14.2507 139.613 14.9013 138.951 15.392C138.29 15.8827 137.543 16.128 136.711 16.128C135.901 16.128 135.069 16.032 134.215 15.84C133.981 17.184 133.863 18.4533 133.863 19.648H139.047C140.669 19.4133 142.301 18.9973 143.943 18.4C144.071 18.784 144.135 19.3067 144.135 19.968C144.135 21.2267 143.762 22.3467 143.015 23.328C142.29 24.3093 141.277 24.8 139.975 24.8C139.293 24.8 138.29 24.6613 136.967 24.384C135.666 24.128 134.695 23.968 134.055 23.904C133.031 24.5227 131.89 24.832 130.631 24.832Z" fill="#3C3939"/>
</svg>
