<svg width="36" height="36" viewBox="0 0 36 36" fill="none" xmlns="http://www.w3.org/2000/svg">
<path d="M31.5 16.875V30.375C31.5 31.1209 31.2037 31.8363 30.6762 32.3637C30.1488 32.8912 29.4334 33.1875 28.6875 33.1875H7.3125C6.56658 33.1875 5.85121 32.8912 5.32376 32.3637C4.79632 31.8363 4.5 31.1209 4.5 30.375V16.875" stroke="#3C3939" stroke-width="2" stroke-miterlimit="10" stroke-linecap="square"/>
<path d="M34.875 7.875H1.125V13.5H34.875V7.875Z" stroke="#3C3939" stroke-width="2" stroke-miterlimit="10" stroke-linecap="square"/>
<path d="M7.875 4.5C7.875 3.60489 8.23058 2.74645 8.86351 2.11351C9.49645 1.48058 10.3549 1.125 11.25 1.125C16.2422 1.125 18 7.875 18 7.875H11.25C10.3549 7.875 9.49645 7.51942 8.86351 6.88649C8.23058 6.25355 7.875 5.39511 7.875 4.5Z" stroke="#3C3939" stroke-width="2" stroke-miterlimit="10" stroke-linecap="square"/>
<path d="M28.125 4.5C28.125 3.60489 27.7694 2.74645 27.1365 2.11351C26.5036 1.48058 25.6451 1.125 24.75 1.125C19.7578 1.125 18 7.875 18 7.875H24.75C25.6451 7.875 26.5036 7.51942 27.1365 6.88649C27.7694 6.25355 28.125 5.39511 28.125 4.5Z" stroke="#3C3939" stroke-width="2" stroke-miterlimit="10" stroke-linecap="square"/>
<path d="M21.375 7.875V33.1875H14.625V7.875" stroke="#3C3939" stroke-width="2" stroke-miterlimit="10" stroke-linecap="square"/>
</svg>
